<?xml version="1.0" encoding="UTF-8" standalone="no"?>
<!-- Created with Inkscape (http://www.inkscape.org/) -->

<svg
   xmlns:dc="http://purl.org/dc/elements/1.1/"
   xmlns:cc="http://creativecommons.org/ns#"
   xmlns:rdf="http://www.w3.org/1999/02/22-rdf-syntax-ns#"
   xmlns:svg="http://www.w3.org/2000/svg"
   xmlns="http://www.w3.org/2000/svg"
   xmlns:sodipodi="http://sodipodi.sourceforge.net/DTD/sodipodi-0.dtd"
   xmlns:inkscape="http://www.inkscape.org/namespaces/inkscape"
   width="134.61465mm"
   height="28.5175mm"
   viewBox="0 0 134.61466 28.5175"
   version="1.1"
   id="svg60"
   inkscape:version="0.92.3 (2405546, 2018-03-11)"
   sodipodi:docname="lightning_logo-name.svg">
  <defs
     id="defs54" />
  <sodipodi:namedview
     id="base"
     pagecolor="#ffffff"
     bordercolor="#666666"
     borderopacity="1.0"
     inkscape:pageopacity="0.0"
     inkscape:pageshadow="2"
     inkscape:zoom="1.979899"
     inkscape:cx="153.48549"
     inkscape:cy="63.956337"
     inkscape:document-units="mm"
     inkscape:current-layer="layer1"
     showgrid="false"
     inkscape:window-width="1032"
     inkscape:window-height="682"
     inkscape:window-x="2427"
     inkscape:window-y="129"
     inkscape:window-maximized="0" />
  <metadata
     id="metadata57">
    <rdf:RDF>
      <cc:Work
         rdf:about="">
        <dc:format>image/svg+xml</dc:format>
        <dc:type
           rdf:resource="http://purl.org/dc/dcmitype/StillImage" />
        <dc:title />
      </cc:Work>
    </rdf:RDF>
  </metadata>
  <g
     inkscape:label="Layer 1"
     inkscape:groupmode="layer"
     id="layer1"
     transform="translate(-97.012964,-177.88943)">
    <text
       xml:space="preserve"
       style="font-style:normal;font-weight:normal;font-size:11.84201717px;line-height:1.25;font-family:sans-serif;letter-spacing:0px;word-spacing:0px;fill:#000000;fill-opacity:1;stroke:none;stroke-width:0.29605043"
       x="141.26341"
       y="185.8197"
       id="text36"
       transform="scale(0.9289483,1.0764862)"><tspan
         sodipodi:role="line"
         id="tspan34"
         x="141.26341"
         y="185.8197"
         style="font-style:normal;font-variant:normal;font-weight:bold;font-stretch:normal;font-size:25.26297188px;font-family:Laksaman;-inkscape-font-specification:'Laksaman Bold';stroke-width:0.29605043">Lightning</tspan></text>
    <path
       style="fill:#fbfbfb;fill-rule:evenodd;stroke:none;stroke-width:0.06923097"
       inkscape:connector-curvature="0"
       d="m 112.97948,181.29208 c -0.0967,0.0592 -7.12906,7.08523 -7.23761,7.23117 -0.0401,0.0538 -0.0793,0.10406 -0.0873,0.11166 -0.0152,0.0146 -0.12934,0.25091 -0.16741,0.34617 -0.10111,0.25352 -0.10038,0.76769 0.002,1.02461 0.14573,0.36741 0.15265,0.37489 2.72729,2.95111 1.34813,1.34897 2.45111,2.46788 2.45111,2.48643 0,0.0402 -0.43789,1.38102 -0.47367,1.4506 -0.0136,0.0265 -0.0248,0.0708 -0.0248,0.0983 0,0.0276 -0.0105,0.062 -0.0227,0.0765 -0.0124,0.0145 -0.0636,0.15715 -0.11361,0.31708 -0.0501,0.15992 -0.10217,0.31244 -0.11575,0.33888 -0.0137,0.0265 -0.0249,0.0708 -0.0249,0.0983 0,0.0276 -0.0105,0.062 -0.0227,0.0765 -0.0124,0.0145 -0.0636,0.15716 -0.11361,0.31708 -0.0501,0.15992 -0.10216,0.31244 -0.11576,0.33889 -0.0137,0.0265 -0.0249,0.0724 -0.0249,0.10216 0,0.0297 -0.0124,0.0619 -0.0277,0.0713 -0.0152,0.009 -0.0277,0.045 -0.0277,0.0792 0,0.0342 -0.0105,0.0739 -0.0231,0.0884 -0.0127,0.0145 -0.0768,0.19455 -0.1422,0.40016 -0.0655,0.20562 -0.26135,0.79754 -0.43532,1.31539 -0.84746,2.52298 -0.79982,2.35489 -0.71536,2.52409 0.11964,0.23981 0.40001,0.34547 0.61962,0.23344 0.12204,-0.0623 7.16609,-7.09119 7.34263,-7.32685 0.0585,-0.0781 0.15729,-0.28675 0.1901,-0.40147 0.0152,-0.0533 0.0421,-0.14697 0.0596,-0.20817 0.0579,-0.20182 0.0118,-0.6246 -0.0978,-0.89952 -0.10333,-0.259 -0.3483,-0.51917 -2.71115,-2.87917 -1.33388,-1.33222 -2.42523,-2.44192 -2.42523,-2.46595 0,-0.0241 0.0487,-0.1865 0.10828,-0.3609 0.0596,-0.17438 0.13631,-0.41055 0.17051,-0.52476 0.0343,-0.11424 0.0727,-0.21954 0.0856,-0.23401 0.0129,-0.0144 0.0233,-0.0542 0.0233,-0.0884 0,-0.0342 0.0125,-0.0698 0.0277,-0.0792 0.0152,-0.009 0.0277,-0.0468 0.0277,-0.0831 0,-0.0363 0.0124,-0.0736 0.0277,-0.0831 0.0152,-0.009 0.0277,-0.0468 0.0277,-0.0831 0,-0.0363 0.0126,-0.0736 0.0277,-0.0831 0.0152,-0.009 0.0277,-0.0468 0.0277,-0.0831 0,-0.0363 0.0126,-0.0736 0.0277,-0.0831 0.0152,-0.009 0.0277,-0.0468 0.0277,-0.0831 0,-0.0363 0.0126,-0.0736 0.0277,-0.0831 0.0152,-0.009 0.0277,-0.0468 0.0277,-0.0831 0,-0.0363 0.0124,-0.0736 0.0277,-0.0831 0.0152,-0.009 0.0277,-0.0468 0.0277,-0.0831 0,-0.0363 0.0125,-0.0736 0.0277,-0.0831 0.0152,-0.009 0.0277,-0.0468 0.0277,-0.0831 0,-0.0363 0.0126,-0.0736 0.0277,-0.0831 0.0152,-0.009 0.0277,-0.0468 0.0277,-0.0831 0,-0.0363 0.0125,-0.0736 0.0277,-0.0831 0.0152,-0.009 0.0277,-0.0468 0.0277,-0.0831 0,-0.0363 0.0124,-0.0736 0.0277,-0.0831 0.0152,-0.009 0.0277,-0.0468 0.0277,-0.0831 0,-0.0363 0.0124,-0.0736 0.0277,-0.0831 0.0152,-0.009 0.0277,-0.0468 0.0277,-0.0831 0,-0.0363 0.0124,-0.0736 0.0277,-0.0831 0.0152,-0.009 0.0277,-0.0468 0.0277,-0.0831 0,-0.0363 0.0124,-0.0736 0.0277,-0.0831 0.0152,-0.009 0.0277,-0.0468 0.0277,-0.0831 0,-0.0363 0.0124,-0.0736 0.0277,-0.0831 0.0152,-0.009 0.0277,-0.0468 0.0277,-0.0831 0,-0.0363 0.0124,-0.0736 0.0277,-0.0831 0.0152,-0.009 0.0277,-0.0414 0.0277,-0.0713 0,-0.0297 0.0113,-0.0757 0.0249,-0.10216 0.0136,-0.0265 0.20616,-0.59644 0.42778,-1.26658 0.22154,-0.67017 0.49078,-1.47691 0.59815,-1.79289 0.21794,-0.64086 0.22729,-0.70822 0.12158,-0.87133 -0.13889,-0.21413 -0.43686,-0.29825 -0.63243,-0.17861"
       id="path0" />
    <path
       style="fill:#540c8c;fill-rule:evenodd;stroke:none;stroke-width:0.07134593"
       inkscape:connector-curvature="0"
       d="m 97.150618,177.91938 c -0.039,0.0198 -0.0869,0.0678 -0.1067,0.1067 -0.0287,0.0566 -0.0346,2.89501 -0.0291,14.16082 l 0.006,14.09003 0.065,0.065 0.0649,0.065 h 14.124922 14.1249 l 0.0649,-0.065 0.065,-0.065 v -14.12491 -14.12494 l -0.065,-0.065 -0.0649,-0.065 -14.09002,-0.006 c -11.26581,-0.005 -14.104222,4.4e-4 -14.160802,0.0291 m 16.249392,2.94252 c 0.46323,0.16126 0.49049,0.37864 0.16687,1.33018 -0.78705,2.42829 -1.60159,4.79174 -2.31048,6.93019 l 2.53907,2.53513 c 2.21757,2.21394 2.70358,2.71557 2.70358,2.79021 0,0.008 0.0236,0.0711 0.0526,0.13755 0.23017,0.52867 0.15633,1.18526 -0.18413,1.63753 -0.25214,0.33497 -7.49917,7.53683 -7.61703,7.56959 -0.24851,0.0691 -0.44322,-0.011 -0.61181,-0.25027 -0.13663,-0.1943 -0.12449,-0.24465 0.51156,-2.12933 0.61784,-1.9638 1.35286,-3.99832 1.94132,-5.86528 0,-0.0139 -1.1339,-1.15923 -2.5198,-2.54512 -2.36482,-2.36491 -2.63131,-2.64445 -2.72832,-2.86226 -0.021,-0.0471 -0.0495,-0.10791 -0.0634,-0.1352 -0.0139,-0.0273 -0.0253,-0.0729 -0.0253,-0.10122 0,-0.0285 -0.0135,-0.0652 -0.0299,-0.0816 -0.0403,-0.0403 -0.0403,-0.77875 0,-0.81892 0.0165,-0.0165 0.0299,-0.0583 0.0299,-0.0928 0,-0.0647 0.12328,-0.31792 0.23244,-0.47752 0.14199,-0.20747 7.52501,-7.55326 7.59207,-7.55368 0.0364,-2.2e-4 0.0856,-0.0129 0.10915,-0.0282 0.0561,-0.0363 0.0786,-0.0351 0.21142,0.0113"
       id="path1"
       sodipodi:nodetypes="ccscccccccccccscccccscccccccccsssscccc" />
  </g>
</svg>
