<?xml version="1.0" encoding="UTF-8" standalone="no"?>
<svg
   xmlns:dc="http://purl.org/dc/elements/1.1/"
   xmlns:cc="http://creativecommons.org/ns#"
   xmlns:rdf="http://www.w3.org/1999/02/22-rdf-syntax-ns#"
   xmlns:svg="http://www.w3.org/2000/svg"
   xmlns="http://www.w3.org/2000/svg"
   xmlns:sodipodi="http://sodipodi.sourceforge.net/DTD/sodipodi-0.dtd"
   xmlns:inkscape="http://www.inkscape.org/namespaces/inkscape"
   id="svg"
   version="1.1"
   width="400"
   height="400"
   viewBox="0, 0, 400,400"
   sodipodi:docname="lightning_icon.svg"
   inkscape:version="0.92.3 (2405546, 2018-03-11)">
  <metadata
     id="metadata13">
    <rdf:RDF>
      <cc:Work
         rdf:about="">
        <dc:format>image/svg+xml</dc:format>
        <dc:type
           rdf:resource="http://purl.org/dc/dcmitype/StillImage" />
      </cc:Work>
    </rdf:RDF>
  </metadata>
  <defs
     id="defs11" />
  <sodipodi:namedview
     pagecolor="#ffffff"
     bordercolor="#666666"
     borderopacity="1"
     objecttolerance="10"
     gridtolerance="10"
     guidetolerance="10"
     inkscape:pageopacity="0"
     inkscape:pageshadow="2"
     inkscape:window-width="1920"
     inkscape:window-height="1028"
     id="namedview9"
     showgrid="false"
     inkscape:zoom="6.675088"
     inkscape:cx="151.92059"
     inkscape:cy="255.28666"
     inkscape:window-x="0"
     inkscape:window-y="0"
     inkscape:window-maximized="1"
     inkscape:current-layer="svg" />
  <g
     id="g13">
    <path
       sodipodi:nodetypes="ccscccccccccccscccccsccccccccccccc"
       id="path1"
       d="M 2.008,0.513 C 1.462,0.79 0.79,1.462 0.513,2.008 0.111,2.801 0.029,42.585 0.105,200.489 L 0.2,397.978 1.111,398.889 2.022,399.8 H 200 397.978 l 0.911,-0.911 0.911,-0.911 V 200 2.022 L 398.889,1.111 397.978,0.2 200.489,0.105 C 42.585,0.029 2.801,0.111 2.008,0.513 m 227.755,41.243 c 6.493,2.26 6.875,5.307 2.339,18.644 -11.0313,34.035452 -22.44803,67.16196 -32.384,97.135 l 35.588,35.533 c 31.082,31.031 36.8266,37.57512 37.63183,39.07055 0.0607,0.1127 0.59417,1.03345 1.00017,1.96545 3.226,7.41 2.191,16.613 -2.581,22.952 -3.534,4.695 -105.11,105.638 -106.762,106.097 -3.483,0.967 -6.212,-0.15 -8.575,-3.508 -1.915,-2.723 -1.745,-3.429 7.17,-29.845 8.65971,-27.52475 18.96205,-56.04122 27.21,-82.209 0,-0.195 -15.893,-16.248 -35.318,-35.673 -33.146,-33.147 -36.881,-37.065 -38.241,-40.118 -0.294,-0.66 -0.693,-1.513 -0.888,-1.895 -0.85227,-3.86616 -2.85879,-10.53393 -0.774,-14.044 0.93039,-2.77392 2.10629,-5.65505 3.679,-7.993 C 120.848,144.96 224.33,42 225.27,41.994 c 1.923,-0.541198 3.22585,-0.675745 4.493,-0.238"
       inkscape:connector-curvature="0"
       style="fill:#540c8c;fill-rule:evenodd;stroke:none" />
  </g>
</svg>
